<?xml version="1.0" encoding="utf-8"?>
<!-- Generator: Adobe Illustrator 23.0.0, SVG Export Plug-In . SVG Version: 6.00 Build 0)  -->
<svg version="1.1" id="Capa_1" xmlns="http://www.w3.org/2000/svg" xmlns:xlink="http://www.w3.org/1999/xlink" x="0px" y="0px"
	 viewBox="0 0 680.31 680.31" style="enable-background:new 0 0 680.31 680.31;" xml:space="preserve">
<style type="text/css">
	.st0{fill:#000079;}
</style>
<g>
	<g>
		<polygon class="st0" points="467.67,383.66 450.33,383.66 368.07,219.14 324.71,270.65 317.87,255.42 363.82,201.04 
			376.36,201.04 		"/>
		<path class="st0" d="M371.33,383.66h-16.97l-45.07-101.42L202.73,383.66h-16.44l91.33-182.66l12.66,0.29L371.33,383.66z
			 M283.42,224.06l-58.57,117.13l77.74-73.99L283.42,224.06z"/>
	</g>
	<g>
		<path class="st0" d="M86.25,443.46l-3.5-8.59h-16.2l-3.5,8.59h-8.59l16.42-38.59h7.77l16.42,38.59H86.25z M74.64,414.99
			l-5.09,12.43h10.18L74.64,414.99z"/>
		<path class="st0" d="M127.85,443.46L109.3,419.1v24.36h-8.32v-38.32h7.77l17.96,23.59v-23.59h8.32v38.32H127.85z"/>
		<path class="st0" d="M178.05,431.85c-0.99,2.34-2.38,4.36-4.19,6.08c-1.81,1.72-3.96,3.07-6.46,4.05
			c-2.5,0.99-5.25,1.48-8.24,1.48h-14.94v-38.32h14.94c2.99,0,5.74,0.48,8.24,1.45c2.5,0.97,4.65,2.31,6.46,4.02
			c1.81,1.72,3.2,3.73,4.19,6.05c0.99,2.32,1.48,4.83,1.48,7.53v0.11C179.53,427,179.04,429.52,178.05,431.85z M170.72,424.3
			c0-1.68-0.28-3.23-0.85-4.65c-0.57-1.42-1.35-2.65-2.35-3.67c-1-1.02-2.22-1.81-3.64-2.38c-1.42-0.57-2.99-0.85-4.71-0.85h-6.51
			v23.1h6.51c1.72,0,3.28-0.27,4.71-0.82c1.42-0.55,2.64-1.33,3.64-2.35c1-1.02,1.79-2.23,2.35-3.61c0.57-1.39,0.85-2.94,0.85-4.65
			V424.3z"/>
		<path class="st0" d="M210.29,443.46l-8.21-12.26h-6.62v12.26h-8.43v-38.32h17.52c4.56,0,8.11,1.11,10.65,3.34
			c2.54,2.23,3.8,5.33,3.8,9.31v0.11c0,3.1-0.76,5.63-2.27,7.58c-1.52,1.95-3.5,3.39-5.94,4.3l9.36,13.69H210.29z M210.46,418.22
			c0-1.82-0.58-3.19-1.75-4.11c-1.17-0.91-2.79-1.37-4.87-1.37h-8.38v11H204c2.08,0,3.68-0.49,4.79-1.48
			c1.11-0.99,1.67-2.3,1.67-3.94V418.22z"/>
		<path class="st0" d="M226.61,443.46v-38.32h28.85v7.5h-20.53v7.77h18.06v7.5h-18.06v8.05h20.8v7.5H226.61z"/>
		<path class="st0" d="M291.81,443.46l-3.5-8.59h-16.2l-3.5,8.59H260l16.42-38.59h7.77l16.42,38.59H291.81z M280.2,414.99
			l-5.09,12.43h10.18L280.2,414.99z"/>
		<path class="st0" d="M352.95,443.46v-25.02l-10.78,16.37h-0.22l-10.67-16.2v24.85h-8.32v-38.32h9.09l10.07,16.2l10.07-16.2h9.09
			v38.32H352.95z"/>
		<path class="st0" d="M407.97,431.99c-1.02,2.39-2.44,4.49-4.24,6.3c-1.81,1.81-3.96,3.23-6.46,4.27c-2.5,1.04-5.23,1.56-8.18,1.56
			s-5.68-0.52-8.16-1.56c-2.48-1.04-4.63-2.44-6.43-4.22c-1.81-1.77-3.21-3.85-4.22-6.24c-1-2.39-1.51-4.95-1.51-7.69v-0.11
			c0-2.74,0.51-5.3,1.53-7.69c1.02-2.39,2.44-4.49,4.24-6.3c1.81-1.81,3.96-3.23,6.46-4.27c2.5-1.04,5.23-1.56,8.18-1.56
			s5.67,0.52,8.16,1.56c2.48,1.04,4.63,2.45,6.43,4.21c1.81,1.77,3.21,3.85,4.22,6.24c1,2.39,1.51,4.95,1.51,7.69v0.11
			C409.5,427.04,408.99,429.6,407.97,431.99z M400.69,424.3c0-1.64-0.28-3.19-0.85-4.65c-0.57-1.46-1.37-2.74-2.41-3.83
			s-2.27-1.96-3.69-2.6c-1.42-0.64-2.98-0.96-4.65-0.96c-1.72,0-3.28,0.31-4.68,0.93c-1.41,0.62-2.61,1.48-3.61,2.57
			c-1,1.09-1.79,2.36-2.35,3.8c-0.57,1.44-0.85,2.98-0.85,4.63v0.11c0,1.64,0.28,3.19,0.85,4.65c0.57,1.46,1.37,2.74,2.41,3.83
			s2.26,1.96,3.67,2.6c1.4,0.64,2.96,0.96,4.68,0.96c1.68,0,3.23-0.31,4.65-0.93c1.42-0.62,2.64-1.48,3.64-2.57
			c1-1.09,1.79-2.36,2.35-3.8c0.57-1.44,0.85-2.98,0.85-4.63V424.3z"/>
		<path class="st0" d="M440.27,443.46l-8.21-12.26h-6.62v12.26H417v-38.32h17.52c4.56,0,8.11,1.11,10.65,3.34
			c2.54,2.23,3.8,5.33,3.8,9.31v0.11c0,3.1-0.76,5.63-2.27,7.58c-1.52,1.95-3.5,3.39-5.94,4.3l9.36,13.69H440.27z M440.43,418.22
			c0-1.82-0.58-3.19-1.75-4.11c-1.17-0.91-2.79-1.37-4.87-1.37h-8.38v11h8.54c2.08,0,3.68-0.49,4.79-1.48
			c1.11-0.99,1.67-2.3,1.67-3.94V418.22z"/>
		<path class="st0" d="M485.1,443.46l-3.5-8.59h-16.2l-3.5,8.59h-8.59l16.42-38.59h7.77l16.42,38.59H485.1z M473.5,414.99
			l-5.09,12.43h10.18L473.5,414.99z"/>
		<path class="st0" d="M499.83,443.46v-38.32h8.43v30.71h19.1v7.61H499.83z"/>
		<path class="st0" d="M533.71,443.46v-38.32h28.85v7.5h-20.53v7.77h18.06v7.5h-18.06v8.05h20.8v7.5H533.71z"/>
		<path class="st0" d="M597.06,437.19c-0.69,1.48-1.65,2.72-2.88,3.72c-1.23,1-2.7,1.77-4.41,2.3c-1.71,0.53-3.6,0.79-5.68,0.79
			c-2.92,0-5.78-0.5-8.59-1.51c-2.81-1-5.36-2.55-7.66-4.63l4.98-5.97c1.75,1.42,3.55,2.56,5.39,3.39c1.84,0.84,3.86,1.26,6.05,1.26
			c1.75,0,3.11-0.32,4.08-0.96c0.97-0.64,1.45-1.52,1.45-2.66v-0.11c0-0.55-0.1-1.03-0.3-1.45c-0.2-0.42-0.59-0.81-1.15-1.18
			c-0.57-0.36-1.35-0.73-2.36-1.1c-1.01-0.36-2.31-0.75-3.92-1.15c-1.94-0.47-3.7-1-5.27-1.59c-1.57-0.58-2.91-1.3-4.01-2.16
			c-1.1-0.86-1.95-1.92-2.55-3.2c-0.6-1.28-0.91-2.86-0.91-4.76v-0.11c0-1.75,0.33-3.33,0.98-4.74c0.65-1.4,1.57-2.62,2.75-3.64
			c1.18-1.02,2.59-1.81,4.22-2.35c1.64-0.55,3.44-0.82,5.41-0.82c2.81,0,5.39,0.42,7.75,1.26c2.35,0.84,4.52,2.04,6.49,3.61
			l-4.38,6.35c-1.72-1.17-3.39-2.09-5.04-2.76c-1.64-0.67-3.28-1.01-4.93-1.01c-1.64,0-2.87,0.32-3.7,0.96
			c-0.82,0.64-1.23,1.43-1.23,2.38v0.11c0,0.62,0.12,1.16,0.36,1.62c0.24,0.46,0.67,0.87,1.29,1.23c0.62,0.37,1.47,0.71,2.55,1.04
			c1.08,0.33,2.44,0.71,4.09,1.15c1.94,0.51,3.67,1.09,5.19,1.72c1.52,0.64,2.8,1.41,3.84,2.3c1.04,0.89,1.83,1.94,2.36,3.15
			c0.53,1.2,0.8,2.65,0.8,4.32v0.11C598.09,434.02,597.74,435.71,597.06,437.19z"/>
	</g>
</g>
</svg>
