<?xml version="1.0" encoding="utf-8"?>
<!-- Generator: Adobe Illustrator 23.0.0, SVG Export Plug-In . SVG Version: 6.00 Build 0)  -->
<svg version="1.1" id="Capa_1" xmlns="http://www.w3.org/2000/svg" xmlns:xlink="http://www.w3.org/1999/xlink" x="0px" y="0px"
	 viewBox="0 0 680.3 680.3" style="enable-background:new 0 0 680.3 680.3;" xml:space="preserve">
<style type="text/css">
	.st0{fill:#FFFFFF;}
</style>
<g>
	<g>
		<polygon class="st0" points="467.7,383.7 450.3,383.7 368.1,219.1 324.7,270.7 317.9,255.4 363.8,201 376.4,201 		"/>
		<path class="st0" d="M371.3,383.7h-17l-45.1-101.4L202.7,383.7h-16.4L277.6,201l12.7,0.3L371.3,383.7z M283.4,224.1l-58.6,117.1
			l77.7-74L283.4,224.1z"/>
	</g>
	<g>
		<path class="st0" d="M86.3,443.5l-3.5-8.6H66.6l-3.5,8.6h-8.6l16.4-38.6h7.8l16.4,38.6H86.3z M74.6,415l-5.1,12.4h10.2L74.6,415z"
			/>
		<path class="st0" d="M127.8,443.5l-18.5-24.4v24.4H101v-38.3h7.8l18,23.6v-23.6h8.3v38.3L127.8,443.5L127.8,443.5z"/>
		<path class="st0" d="M178.1,431.9c-1,2.3-2.4,4.4-4.2,6.1s-4,3.1-6.5,4c-2.5,1-5.3,1.5-8.2,1.5h-14.9v-38.3h14.9
			c3,0,5.7,0.5,8.2,1.5s4.6,2.3,6.5,4c1.8,1.7,3.2,3.7,4.2,6c1,2.3,1.5,4.8,1.5,7.5v0.1C179.5,427,179,429.5,178.1,431.9z
			 M170.7,424.3c0-1.7-0.3-3.2-0.9-4.6c-0.6-1.4-1.4-2.6-2.4-3.7c-1-1-2.2-1.8-3.6-2.4s-3-0.9-4.7-0.9h-6.5v23.1h6.5
			c1.7,0,3.3-0.3,4.7-0.8c1.4-0.5,2.6-1.3,3.6-2.4c1-1,1.8-2.2,2.4-3.6c0.6-1.4,0.9-2.9,0.9-4.6V424.3z"/>
		<path class="st0" d="M210.3,443.5l-8.2-12.3h-6.6v12.3H187v-38.3h17.5c4.6,0,8.1,1.1,10.6,3.3s3.8,5.3,3.8,9.3v0.1
			c0,3.1-0.8,5.6-2.3,7.6c-1.5,2-3.5,3.4-5.9,4.3l9.4,13.7L210.3,443.5L210.3,443.5z M210.5,418.2c0-1.8-0.6-3.2-1.8-4.1
			c-1.2-0.9-2.8-1.4-4.9-1.4h-8.4v11h8.5c2.1,0,3.7-0.5,4.8-1.5c1.1-1,1.7-2.3,1.7-3.9L210.5,418.2L210.5,418.2z"/>
		<path class="st0" d="M226.6,443.5v-38.3h28.9v7.5h-20.5v7.8H253v7.5h-18.1v8h20.8v7.5L226.6,443.5L226.6,443.5z"/>
		<path class="st0" d="M291.8,443.5l-3.5-8.6h-16.2l-3.5,8.6H260l16.4-38.6h7.8l16.4,38.6H291.8z M280.2,415l-5.1,12.4h10.2
			L280.2,415z"/>
		<path class="st0" d="M353,443.5v-25l-10.8,16.4H342l-10.7-16.2v24.9H323v-38.3h9.1l10.1,16.2l10.1-16.2h9.1v38.3H353z"/>
		<path class="st0" d="M408,432c-1,2.4-2.4,4.5-4.2,6.3c-1.8,1.8-4,3.2-6.5,4.3c-2.5,1-5.2,1.6-8.2,1.6s-5.7-0.5-8.2-1.6
			s-4.6-2.4-6.4-4.2c-1.8-1.8-3.2-3.9-4.2-6.2c-1-2.4-1.5-5-1.5-7.7v-0.1c0-2.7,0.5-5.3,1.5-7.7s2.4-4.5,4.2-6.3
			c1.8-1.8,4-3.2,6.5-4.3c2.5-1,5.2-1.6,8.2-1.6s5.7,0.5,8.2,1.6c2.5,1,4.6,2.5,6.4,4.2c1.8,1.8,3.2,3.9,4.2,6.2
			c1,2.4,1.5,5,1.5,7.7v0.1C409.5,427,409,429.6,408,432z M400.7,424.3c0-1.6-0.3-3.2-0.9-4.6s-1.4-2.7-2.4-3.8s-2.3-2-3.7-2.6
			s-3-1-4.6-1c-1.7,0-3.3,0.3-4.7,0.9c-1.4,0.6-2.6,1.5-3.6,2.6s-1.8,2.4-2.4,3.8c-0.6,1.4-0.9,3-0.9,4.6v0.1c0,1.6,0.3,3.2,0.9,4.6
			s1.4,2.7,2.4,3.8s2.3,2,3.7,2.6c1.4,0.6,3,1,4.7,1c1.7,0,3.2-0.3,4.6-0.9c1.4-0.6,2.6-1.5,3.6-2.6s1.8-2.4,2.4-3.8
			c0.6-1.4,0.9-3,0.9-4.6L400.7,424.3L400.7,424.3z"/>
		<path class="st0" d="M440.3,443.5l-8.2-12.3h-6.6v12.3H417v-38.3h17.5c4.6,0,8.1,1.1,10.6,3.3s3.8,5.3,3.8,9.3v0.1
			c0,3.1-0.8,5.6-2.3,7.6c-1.5,2-3.5,3.4-5.9,4.3l9.4,13.7L440.3,443.5L440.3,443.5z M440.4,418.2c0-1.8-0.6-3.2-1.8-4.1
			c-1.2-0.9-2.8-1.4-4.9-1.4h-8.4v11h8.5c2.1,0,3.7-0.5,4.8-1.5c1.1-1,1.7-2.3,1.7-3.9L440.4,418.2L440.4,418.2z"/>
		<path class="st0" d="M485.1,443.5l-3.5-8.6h-16.2l-3.5,8.6h-8.6l16.4-38.6h7.8l16.4,38.6H485.1z M473.5,415l-5.1,12.4h10.2
			L473.5,415z"/>
		<path class="st0" d="M499.8,443.5v-38.3h8.4v30.7h19.1v7.6L499.8,443.5L499.8,443.5z"/>
		<path class="st0" d="M533.7,443.5v-38.3h28.8v7.5H542v7.8h18.1v7.5H542v8h20.8v7.5L533.7,443.5L533.7,443.5z"/>
		<path class="st0" d="M597.1,437.2c-0.7,1.5-1.7,2.7-2.9,3.7s-2.7,1.8-4.4,2.3c-1.7,0.5-3.6,0.8-5.7,0.8c-2.9,0-5.8-0.5-8.6-1.5
			c-2.8-1-5.4-2.5-7.7-4.6l5-6c1.8,1.4,3.5,2.6,5.4,3.4c1.8,0.8,3.9,1.3,6,1.3c1.8,0,3.1-0.3,4.1-1c1-0.6,1.5-1.5,1.5-2.7v-0.1
			c0-0.5-0.1-1-0.3-1.5s-0.6-0.8-1.2-1.2c-0.6-0.4-1.3-0.7-2.4-1.1c-1-0.4-2.3-0.8-3.9-1.1c-1.9-0.5-3.7-1-5.3-1.6
			c-1.6-0.6-2.9-1.3-4-2.2c-1.1-0.9-2-1.9-2.5-3.2s-0.9-2.9-0.9-4.8v-0.1c0-1.8,0.3-3.3,1-4.7c0.7-1.4,1.6-2.6,2.8-3.6
			c1.2-1,2.6-1.8,4.2-2.4c1.6-0.5,3.4-0.8,5.4-0.8c2.8,0,5.4,0.4,7.8,1.3c2.3,0.8,4.5,2,6.5,3.6l-4.4,6.4c-1.7-1.2-3.4-2.1-5-2.8
			c-1.6-0.7-3.3-1-4.9-1c-1.6,0-2.9,0.3-3.7,1c-0.8,0.6-1.2,1.4-1.2,2.4v0.1c0,0.6,0.1,1.2,0.4,1.6s0.7,0.9,1.3,1.2
			c0.6,0.4,1.5,0.7,2.5,1c1.1,0.3,2.4,0.7,4.1,1.1c1.9,0.5,3.7,1.1,5.2,1.7c1.5,0.6,2.8,1.4,3.8,2.3c1,0.9,1.8,1.9,2.4,3.1
			c0.5,1.2,0.8,2.6,0.8,4.3v0.1C598.1,434,597.7,435.7,597.1,437.2z"/>
	</g>
</g>
</svg>
